<svg width="221" height="32" viewBox="0 0 221 32" fill="none" xmlns="http://www.w3.org/2000/svg">
<path d="M7.056 4.264C5.37067 4.264 4.528 5.18133 4.528 7.016V8.04H9.232V11.24H4.624V25H0.624V6.952C0.624 5.13867 1.15733 3.69866 2.224 2.632C3.29067 1.56533 4.80533 1.032 6.768 1.032C8.28267 1.032 9.47733 1.34133 10.352 1.96L9.232 4.968C8.592 4.49867 7.86667 4.264 7.056 4.264ZM18.3373 4.264C16.6519 4.264 15.8093 5.18133 15.8093 7.016V8.04H20.5133V11.24H15.9053V25H11.9053V6.952C11.9053 5.13867 12.4386 3.69866 13.5052 2.632C14.5719 1.56533 16.0866 1.032 18.0493 1.032C19.5639 1.032 20.7586 1.34133 21.6333 1.96L20.5133 4.968C19.8733 4.49867 19.1479 4.264 18.3373 4.264ZM30.6165 25.224C28.8885 25.224 27.3312 24.8507 25.9445 24.104C24.5578 23.3573 23.4698 22.3227 22.6805 21C21.9125 19.656 21.5285 18.1413 21.5285 16.456C21.5285 14.7707 21.9125 13.2667 22.6805 11.944C23.4698 10.6213 24.5578 9.58667 25.9445 8.84C27.3312 8.09333 28.8885 7.72 30.6165 7.72C32.3658 7.72 33.9338 8.09333 35.3205 8.84C36.7072 9.58667 37.7845 10.6213 38.5525 11.944C39.3418 13.2667 39.7365 14.7707 39.7365 16.456C39.7365 18.1413 39.3418 19.656 38.5525 21C37.7845 22.3227 36.7072 23.3573 35.3205 24.104C33.9338 24.8507 32.3658 25.224 30.6165 25.224ZM30.6165 21.8C32.0885 21.8 33.3045 21.3093 34.2645 20.328C35.2245 19.3467 35.7045 18.056 35.7045 16.456C35.7045 14.856 35.2245 13.5653 34.2645 12.584C33.3045 11.6027 32.0885 11.112 30.6165 11.112C29.1445 11.112 27.9285 11.6027 26.9685 12.584C26.0298 13.5653 25.5605 14.856 25.5605 16.456C25.5605 18.056 26.0298 19.3467 26.9685 20.328C27.9285 21.3093 29.1445 21.8 30.6165 21.8ZM56.8155 21.8V25H42.0635V22.472L45.9035 17.832H43.2475V14.888H48.3355L51.4395 11.112H42.2555V7.912H56.5595V10.44L52.8475 14.92H55.5995V17.864H50.4155L47.1515 21.8H56.8155ZM60.6553 7.912H64.6553V25H60.6553V7.912ZM62.6713 5.096C61.9459 5.096 61.3379 4.872 60.8473 4.424C60.3566 3.95467 60.1113 3.37867 60.1113 2.696C60.1113 2.01333 60.3566 1.448 60.8473 0.999998C61.3379 0.530666 61.9459 0.296 62.6713 0.296C63.3966 0.296 64.0046 0.519999 64.4953 0.967999C64.9859 1.39467 65.2313 1.93867 65.2313 2.6C65.2313 3.304 64.9859 3.90133 64.4953 4.392C64.0259 4.86133 63.4179 5.096 62.6713 5.096ZM75.5373 25.224C73.7666 25.224 72.3799 24.744 71.3773 23.784C70.3959 22.8027 69.9053 21.4267 69.9053 19.656V1.256H73.9053V19.368C73.9053 21.0747 74.7053 21.928 76.3053 21.928C76.8386 21.928 77.3186 21.8213 77.7453 21.608L77.9373 24.808C77.1906 25.0853 76.3906 25.224 75.5373 25.224ZM90.1273 7.72C91.7913 7.72 93.2739 8.08267 94.5753 8.808C95.8979 9.53333 96.9326 10.5573 97.6793 11.88C98.4259 13.2027 98.7993 14.728 98.7993 16.456C98.7993 18.184 98.4259 19.72 97.6793 21.064C96.9326 22.3867 95.8979 23.4107 94.5753 24.136C93.2739 24.8613 91.7913 25.224 90.1273 25.224C88.9539 25.224 87.8766 25.0213 86.8953 24.616C85.9353 24.2107 85.1246 23.6027 84.4633 22.792V25H80.6553V1.256H84.6553V9.992C85.3379 9.24533 86.1379 8.68 87.0553 8.296C87.9939 7.912 89.0179 7.72 90.1273 7.72ZM89.6793 21.8C91.1513 21.8 92.3566 21.3093 93.2953 20.328C94.2553 19.3467 94.7353 18.056 94.7353 16.456C94.7353 14.856 94.2553 13.5653 93.2953 12.584C92.3566 11.6027 91.1513 11.112 89.6793 11.112C88.7193 11.112 87.8553 11.336 87.0873 11.784C86.3193 12.2107 85.7113 12.8293 85.2633 13.64C84.8153 14.4507 84.5913 15.3893 84.5913 16.456C84.5913 17.5227 84.8153 18.4613 85.2633 19.272C85.7113 20.0827 86.3193 20.712 87.0873 21.16C87.8553 21.5867 88.7193 21.8 89.6793 21.8ZM110.721 21.832C112.577 21.832 114.123 21.2133 115.361 19.976L117.473 22.44C116.726 23.3573 115.766 24.0507 114.593 24.52C113.419 24.9893 112.097 25.224 110.625 25.224C108.747 25.224 107.094 24.8507 105.665 24.104C104.235 23.3573 103.126 22.3227 102.337 21C101.569 19.656 101.185 18.1413 101.185 16.456C101.185 14.792 101.558 13.2987 102.305 11.976C103.073 10.632 104.118 9.58667 105.441 8.84C106.785 8.09333 108.299 7.72 109.985 7.72C111.585 7.72 113.035 8.072 114.337 8.776C115.659 9.45867 116.705 10.4507 117.473 11.752C118.241 13.032 118.625 14.536 118.625 16.264L105.537 18.824C105.942 19.8053 106.593 20.552 107.489 21.064C108.385 21.576 109.462 21.832 110.721 21.832ZM109.985 10.92C108.513 10.92 107.318 11.4 106.401 12.36C105.505 13.32 105.057 14.6107 105.057 16.232V16.264L114.721 14.408C114.443 13.3627 113.878 12.52 113.025 11.88C112.193 11.24 111.179 10.92 109.985 10.92ZM129.444 17.672L126.468 20.488V25H122.468V1.256H126.468V15.592L134.756 7.912H139.556L132.42 15.08L140.228 25H135.364L129.444 17.672ZM160.409 7.72C162.073 7.72 163.555 8.08267 164.857 8.808C166.179 9.53333 167.214 10.5573 167.961 11.88C168.707 13.2027 169.081 14.728 169.081 16.456C169.081 18.184 168.707 19.72 167.961 21.064C167.214 22.3867 166.179 23.4107 164.857 24.136C163.555 24.8613 162.073 25.224 160.409 25.224C159.235 25.224 158.158 25.0213 157.177 24.616C156.217 24.2107 155.406 23.6027 154.745 22.792V25H150.937V1.256H154.937V9.992C155.619 9.24533 156.419 8.68 157.337 8.296C158.275 7.912 159.299 7.72 160.409 7.72ZM159.961 21.8C161.433 21.8 162.638 21.3093 163.577 20.328C164.537 19.3467 165.017 18.056 165.017 16.456C165.017 14.856 164.537 13.5653 163.577 12.584C162.638 11.6027 161.433 11.112 159.961 11.112C159.001 11.112 158.137 11.336 157.369 11.784C156.601 12.2107 155.993 12.8293 155.545 13.64C155.097 14.4507 154.873 15.3893 154.873 16.456C154.873 17.5227 155.097 18.4613 155.545 19.272C155.993 20.0827 156.601 20.712 157.369 21.16C158.137 21.5867 159.001 21.8 159.961 21.8ZM178.506 25.224C176.735 25.224 175.349 24.744 174.346 23.784C173.365 22.8027 172.874 21.4267 172.874 19.656V1.256H176.874V19.368C176.874 21.0747 177.674 21.928 179.274 21.928C179.807 21.928 180.287 21.8213 180.714 21.608L180.906 24.808C180.159 25.0853 179.359 25.224 178.506 25.224ZM190.992 25.224C189.264 25.224 187.706 24.8507 186.32 24.104C184.933 23.3573 183.845 22.3227 183.056 21C182.288 19.656 181.904 18.1413 181.904 16.456C181.904 14.7707 182.288 13.2667 183.056 11.944C183.845 10.6213 184.933 9.58667 186.32 8.84C187.706 8.09333 189.264 7.72 190.992 7.72C192.741 7.72 194.309 8.09333 195.696 8.84C197.082 9.58667 198.16 10.6213 198.928 11.944C199.717 13.2667 200.112 14.7707 200.112 16.456C200.112 18.1413 199.717 19.656 198.928 21C198.16 22.3227 197.082 23.3573 195.696 24.104C194.309 24.8507 192.741 25.224 190.992 25.224ZM190.992 21.8C192.464 21.8 193.68 21.3093 194.64 20.328C195.6 19.3467 196.08 18.056 196.08 16.456C196.08 14.856 195.6 13.5653 194.64 12.584C193.68 11.6027 192.464 11.112 190.992 11.112C189.52 11.112 188.304 11.6027 187.344 12.584C186.405 13.5653 185.936 14.856 185.936 16.456C185.936 18.056 186.405 19.3467 187.344 20.328C188.304 21.3093 189.52 21.8 190.992 21.8ZM220.897 7.912V22.408C220.897 28.424 217.825 31.432 211.681 31.432C210.038 31.432 208.481 31.2187 207.009 30.792C205.537 30.3867 204.321 29.7893 203.361 29L205.153 25.992C205.899 26.6107 206.838 27.1013 207.969 27.464C209.121 27.848 210.283 28.04 211.457 28.04C213.334 28.04 214.71 27.6133 215.585 26.76C216.459 25.9067 216.897 24.6053 216.897 22.856V21.96C216.214 22.7067 215.382 23.272 214.401 23.656C213.419 24.04 212.342 24.232 211.169 24.232C209.547 24.232 208.075 23.8907 206.753 23.208C205.451 22.504 204.417 21.5227 203.649 20.264C202.902 19.0053 202.529 17.5653 202.529 15.944C202.529 14.3227 202.902 12.8933 203.649 11.656C204.417 10.3973 205.451 9.42667 206.753 8.744C208.075 8.06133 209.547 7.72 211.169 7.72C212.406 7.72 213.526 7.92267 214.529 8.328C215.553 8.73333 216.406 9.352 217.089 10.184V7.912H220.897ZM211.777 20.84C213.291 20.84 214.529 20.392 215.489 19.496C216.47 18.5787 216.961 17.3947 216.961 15.944C216.961 14.5147 216.47 13.352 215.489 12.456C214.529 11.56 213.291 11.112 211.777 11.112C210.241 11.112 208.982 11.56 208.001 12.456C207.041 13.352 206.561 14.5147 206.561 15.944C206.561 17.3947 207.041 18.5787 208.001 19.496C208.982 20.392 210.241 20.84 211.777 20.84Z" fill="#333333"/>
<path d="M144.404 25.224C143.679 25.224 143.06 24.9787 142.548 24.488C142.036 23.976 141.78 23.336 141.78 22.568C141.78 21.7787 142.025 21.1387 142.516 20.648C143.028 20.1573 143.657 19.912 144.404 19.912C145.151 19.912 145.769 20.1573 146.26 20.648C146.772 21.1387 147.028 21.7787 147.028 22.568C147.028 23.336 146.772 23.976 146.26 24.488C145.748 24.9787 145.129 25.224 144.404 25.224Z" fill="#FF6347"/>
</svg>
